<svg width="68" height="68" viewBox="0 0 68 68" fill="none" xmlns="http://www.w3.org/2000/svg">
<rect width="68" height="68" rx="34" fill="#D8E5D4"/>
<path d="M33.4843 46.4406C32.932 46.4406 32.4843 46.8883 32.4843 47.4406C32.4843 47.9929 32.932 48.4406 33.4843 48.4406V46.4406ZM49.263 32.4016L48.2725 32.5392V32.5392L49.263 32.4016ZM49.5517 42.2015L50.4824 42.5674L49.5517 42.2015ZM45.9148 46.3784L45.4243 45.507L45.9148 46.3784ZM43.9283 21.7516L44.345 20.8426V20.8426L43.9283 21.7516ZM47.451 24.8189L46.6079 25.3567L47.451 24.8189ZM25.7244 21.7516L25.3077 20.8426V20.8426L25.7244 21.7516ZM19.3992 32.264C19.3233 32.8111 19.7051 33.3161 20.2522 33.3921C20.7992 33.4681 21.3042 33.0862 21.3802 32.5392L19.3992 32.264ZM22.2017 24.8189L21.3587 24.2811V24.2811L22.2017 24.8189ZM22.9406 27.1752L23.6477 26.4681L23.6352 26.4555L23.6221 26.4434L22.9406 27.1752ZM47.7291 25.7571L47.022 25.05L47.022 25.05L47.7291 25.7571ZM46.311 27.1752L45.6039 26.4681V26.4681L46.311 27.1752ZM18 43.1355C17.4477 43.1355 17 43.5832 17 44.1355C17 44.6878 17.4477 45.1355 18 45.1355V43.1355ZM27.9152 45.1355C28.4675 45.1355 28.9152 44.6878 28.9152 44.1355C28.9152 43.5832 28.4675 43.1355 27.9152 43.1355V45.1355ZM18 38.1779C17.4477 38.1779 17 38.6256 17 39.1779C17 39.7302 17.4477 40.1779 18 40.1779V38.1779ZM22.9576 40.1779C23.5099 40.1779 23.9576 39.7302 23.9576 39.1779C23.9576 38.6256 23.5099 38.1779 22.9576 38.1779V40.1779ZM33.4843 22H36.1683V20H33.4843V22ZM36.1684 46.4406H33.4843V48.4406H36.1684V46.4406ZM48.2725 32.5392C48.6353 35.1515 48.8978 37.0478 48.9762 38.5442C49.054 40.0308 48.942 41.0193 48.6211 41.8356L50.4824 42.5674C50.9538 41.3684 51.0579 40.0517 50.9734 38.4396C50.8895 36.8374 50.6114 34.8415 50.2535 32.264L48.2725 32.5392ZM36.1684 48.4406C38.7705 48.4406 40.7857 48.4415 42.3843 48.3041C43.9927 48.166 45.2825 47.8818 46.4053 47.2499L45.4243 45.507C44.66 45.9372 43.6963 46.1841 42.2131 46.3115C40.7201 46.4397 38.8057 46.4406 36.1684 46.4406V48.4406ZM48.6211 41.8356C48.0096 43.3907 46.8805 44.6874 45.4243 45.507L46.4053 47.2499C48.2625 46.2046 49.7025 44.5508 50.4824 42.5674L48.6211 41.8356ZM36.1683 22C38.2237 22 39.7091 22.0007 40.8871 22.091C42.0525 22.1804 42.8417 22.3536 43.5115 22.6607L44.345 20.8426C43.3752 20.398 42.3246 20.1954 41.04 20.0969C39.7679 19.9993 38.1932 20 36.1683 20V22ZM43.5115 22.6607C44.7815 23.2428 45.8566 24.1789 46.6079 25.3567L48.294 24.2811C47.3358 22.779 45.9646 21.5851 44.345 20.8426L43.5115 22.6607ZM33.4843 20C31.4595 20 29.8847 19.9993 28.6127 20.0969C27.3281 20.1954 26.2775 20.398 25.3077 20.8426L26.1412 22.6607C26.811 22.3536 27.6002 22.1804 28.7656 22.091C29.9435 22.0007 31.4289 22 33.4843 22V20ZM21.3802 32.5392C21.8209 29.3664 22.0738 27.5935 22.5662 26.3176L20.7003 25.5976C20.1038 27.1432 19.8247 29.2007 19.3992 32.264L21.3802 32.5392ZM22.5662 26.3176C22.7061 25.9549 22.8628 25.642 23.0448 25.3567L21.3587 24.2811C21.0974 24.6906 20.8828 25.1247 20.7003 25.5976L22.5662 26.3176ZM25.3077 20.8426C23.688 21.5851 22.3169 22.779 21.3587 24.2811L23.0448 25.3567C23.7961 24.1789 24.8712 23.2428 26.1412 22.6607L25.3077 20.8426ZM23.6221 26.4434L22.3147 25.2258L20.9517 26.6894L22.2591 27.907L23.6221 26.4434ZM47.022 25.05L45.6039 26.4681L47.0181 27.8823L48.4362 26.4642L47.022 25.05ZM22.2335 27.8823C24.9678 30.6165 27.0881 32.7399 28.9589 34.1672C30.8528 35.6122 32.608 36.4379 34.6258 36.4379V34.4379C33.2211 34.4379 31.888 33.8864 30.172 32.5772C28.433 31.2503 26.4219 29.2423 23.6477 26.4681L22.2335 27.8823ZM45.6039 26.4681C42.8297 29.2423 40.8187 31.2503 39.0796 32.5772C37.3636 33.8864 36.0305 34.4379 34.6258 34.4379V36.4379C36.6436 36.4379 38.3989 35.6122 40.2928 34.1672C42.1636 32.7399 44.2839 30.6165 47.0181 27.8823L45.6039 26.4681ZM18 45.1355H27.9152V43.1355H18V45.1355ZM18 40.1779H22.9576V38.1779H18V40.1779ZM50.2535 32.264C49.7933 28.9512 49.5057 26.8079 48.7884 25.2028L46.9624 26.0188C47.5347 27.2994 47.7934 29.0897 48.2725 32.5392L50.2535 32.264ZM48.7884 25.2028C48.6436 24.8789 48.4805 24.5734 48.294 24.2811L46.6079 25.3567C46.7383 25.5612 46.8554 25.7793 46.9624 26.0188L48.7884 25.2028ZM48.4362 26.4642L48.5825 26.3179L47.1683 24.9037L47.022 25.05L48.4362 26.4642Z" fill="#3B7F26"/>
</svg>
