<svg width="68" height="68" viewBox="0 0 68 68" fill="none" xmlns="http://www.w3.org/2000/svg">
<rect width="68" height="68" rx="34" fill="#D8E5D4"/>
<path d="M37.8753 26.7761C37.8753 28.8616 36.1847 30.5523 34.0991 30.5523V32.5523C37.2892 32.5523 39.8753 29.9662 39.8753 26.7761H37.8753ZM34.0991 30.5523C32.0136 30.5523 30.323 28.8616 30.323 26.7761H28.323C28.323 29.9662 30.9091 32.5523 34.0991 32.5523V30.5523ZM30.323 26.7761C30.323 24.6906 32.0136 23 34.0991 23V21C30.9091 21 28.323 23.5861 28.323 26.7761H30.323ZM34.0991 23C36.1847 23 37.8753 24.6906 37.8753 26.7761H39.8753C39.8753 23.5861 37.2892 21 34.0991 21V23ZM29.323 37.3284H38.8753V35.3284H29.323V37.3284ZM38.8753 44.8807H29.323V46.8807H38.8753V44.8807ZM29.323 44.8807C27.2375 44.8807 25.5469 43.1901 25.5469 41.1046H23.5469C23.5469 44.2946 26.1329 46.8807 29.323 46.8807V44.8807ZM42.6514 41.1046C42.6514 43.1901 40.9608 44.8807 38.8753 44.8807V46.8807C42.0654 46.8807 44.6514 44.2946 44.6514 41.1046H42.6514ZM38.8753 37.3284C40.9608 37.3284 42.6514 39.019 42.6514 41.1046H44.6514C44.6514 37.9145 42.0654 35.3284 38.8753 35.3284V37.3284ZM29.323 35.3284C26.1329 35.3284 23.5469 37.9145 23.5469 41.1046H25.5469C25.5469 39.019 27.2375 37.3284 29.323 37.3284V35.3284Z" fill="#3B7F26"/>
<path d="M40.4473 30.5523C39.895 30.5523 39.4473 31 39.4473 31.5523C39.4473 32.1046 39.895 32.5523 40.4473 32.5523V30.5523ZM40.4473 21C39.895 21 39.4473 21.4477 39.4473 22C39.4473 22.5523 39.895 23 40.4473 23V21ZM45.2234 43.9454C44.6711 43.9454 44.2234 44.3931 44.2234 44.9454C44.2234 45.4976 44.6711 45.9454 45.2234 45.9454V43.9454ZM45.2234 34.3931C44.6711 34.3931 44.2234 34.8408 44.2234 35.3931C44.2234 35.9454 44.6711 36.3931 45.2234 36.3931V34.3931ZM44.2234 26.7761C44.2234 28.8616 42.5328 30.5523 40.4473 30.5523V32.5523C43.6373 32.5523 46.2234 29.9662 46.2234 26.7761H44.2234ZM40.4473 23C42.5328 23 44.2234 24.6906 44.2234 26.7761H46.2234C46.2234 23.5861 43.6373 21 40.4473 21V23ZM48.9995 40.1692C48.9995 42.2547 47.3089 43.9454 45.2234 43.9454V45.9454C48.4135 45.9454 50.9995 43.3593 50.9995 40.1692H48.9995ZM45.2234 36.3931C47.3089 36.3931 48.9995 38.0837 48.9995 40.1692H50.9995C50.9995 36.9792 48.4135 34.3931 45.2234 34.3931V36.3931Z" fill="#3B7F26"/>
<path d="M27.5527 30.5523C28.105 30.5523 28.5527 31 28.5527 31.5523C28.5527 32.1046 28.105 32.5523 27.5527 32.5523V30.5523ZM27.5527 21C28.105 21 28.5527 21.4477 28.5527 22C28.5527 22.5523 28.105 23 27.5527 23V21ZM22.7766 43.9454C23.3289 43.9454 23.7766 44.3931 23.7766 44.9454C23.7766 45.4976 23.3289 45.9454 22.7766 45.9454V43.9454ZM22.7766 34.3931C23.3289 34.3931 23.7766 34.8408 23.7766 35.3931C23.7766 35.9454 23.3289 36.3931 22.7766 36.3931V34.3931ZM23.7766 26.7761C23.7766 28.8616 25.4672 30.5523 27.5527 30.5523V32.5523C24.3627 32.5523 21.7766 29.9662 21.7766 26.7761H23.7766ZM27.5527 23C25.4672 23 23.7766 24.6906 23.7766 26.7761H21.7766C21.7766 23.5861 24.3627 21 27.5527 21V23ZM19.0005 40.1692C19.0005 42.2547 20.6911 43.9454 22.7766 43.9454V45.9454C19.5865 45.9454 17.0005 43.3593 17.0005 40.1692H19.0005ZM22.7766 36.3931C20.6911 36.3931 19.0005 38.0837 19.0005 40.1692H17.0005C17.0005 36.9792 19.5865 34.3931 22.7766 34.3931V36.3931Z" fill="#3B7F26"/>
</svg>
