<svg width="68" height="68" viewBox="0 0 68 68" fill="none" xmlns="http://www.w3.org/2000/svg">
<rect width="68" height="68" rx="34" fill="#DCDAEB"/>
<path d="M32.8683 27.1798L33.8222 27.4798L32.8683 27.1798ZM30.3247 31.4483L30.925 30.6485L30.3247 31.4483ZM30.9252 33.3572L31.8791 33.6573L30.9252 33.3572ZM33.4687 35.2662L32.8684 34.4664L33.4687 35.2662ZM35.4118 35.2662L36.012 34.4664L35.4118 35.2662ZM37.9553 33.3572L37.0014 33.6573L37.9553 33.3572ZM38.5557 31.4483L37.9555 30.6485L38.5557 31.4483ZM36.0122 27.1798L36.9661 26.8797L36.0122 27.1798ZM23.8192 37.1076L24.7469 36.7341L23.8192 37.1076ZM29.9085 42.2665L29.5089 43.1832L29.9085 42.2665ZM25.5358 39.7286L26.2489 39.0276L25.5358 39.7286ZM45.0616 37.1076L44.1339 36.7341L45.0616 37.1076ZM38.9723 42.2665L39.3719 43.1832L38.9723 42.2665ZM43.345 39.7286L44.0581 40.4297L43.345 39.7286ZM45.2489 23.5279L44.2978 23.8369L45.2489 23.5279ZM40.1125 18.3915L39.8035 19.3426L40.1125 18.3915ZM23.632 23.5279L24.583 23.8369L23.632 23.5279ZM28.7683 18.3915L29.0773 19.3426L28.7683 18.3915ZM18.9725 33.3716L18.365 34.1659L18.3792 34.1768L18.3938 34.1871L18.9725 33.3716ZM49.9086 33.3716L50.4872 34.1871L50.5018 34.1768L50.516 34.1659L49.9086 33.3716ZM33.4404 50C33.4404 50.5523 33.8881 51 34.4404 51C34.9927 51 35.4404 50.5523 35.4404 50H33.4404ZM40.8404 51C41.3927 51 41.8404 50.5523 41.8404 50C41.8404 49.4477 41.3927 49 40.8404 49V51ZM28.0404 49C27.4881 49 27.0404 49.4477 27.0404 50C27.0404 50.5523 27.4881 51 28.0404 51V49ZM23.6255 36.5556L24.5832 36.2677L23.6255 36.5556ZM45.4585 24.4L44.4724 24.5661L45.4585 24.4ZM45.988 36.1534L45.4093 35.3378L45.988 36.1534ZM22.902 36.1597L22.3233 36.9753L22.902 36.1597ZM31.2963 29.3596C32.4668 29.3596 33.4753 28.5827 33.8222 27.4798L31.9143 26.8797C31.8187 27.1838 31.5579 27.3596 31.2963 27.3596V29.3596ZM30.925 30.6485C30.6618 30.451 30.5829 30.1425 30.6782 29.8394C30.7728 29.5386 30.9985 29.3596 31.2963 29.3596V27.3596C28.6621 27.3596 27.7186 30.7427 29.7245 32.2481L30.925 30.6485ZM31.8791 33.6573C32.2245 32.5592 31.8518 31.344 30.925 30.6485L29.7245 32.2481C29.9563 32.4221 30.0684 32.7483 29.9713 33.0572L31.8791 33.6573ZM32.8684 34.4664C32.617 34.6551 32.3483 34.6333 32.1259 34.4664C31.8988 34.2959 31.77 34.0041 31.8791 33.6573L29.9713 33.0572C29.5856 34.2834 30.0808 35.4322 30.9254 36.066C31.7746 36.7033 33.0251 36.8494 34.069 36.066L32.8684 34.4664ZM36.012 34.4664C35.0771 33.7647 33.8034 33.7647 32.8684 34.4664L34.069 36.066C34.2926 35.8981 34.5879 35.8981 34.8115 36.066L36.012 34.4664ZM37.0014 33.6573C37.1105 34.0041 36.9817 34.2959 36.7546 34.4664C36.5322 34.6333 36.2635 34.6551 36.012 34.4664L34.8115 36.066C35.8554 36.8494 37.1059 36.7033 37.9551 36.066C38.7996 35.4322 39.2949 34.2834 38.9092 33.0572L37.0014 33.6573ZM37.9555 30.6485C37.0287 31.344 36.656 32.5592 37.0014 33.6573L38.9092 33.0572C38.812 32.7483 38.9241 32.4221 39.156 32.2481L37.9555 30.6485ZM37.5842 29.3596C37.882 29.3596 38.1076 29.5386 38.2022 29.8394C38.2976 30.1425 38.2186 30.451 37.9555 30.6485L39.156 32.2481C41.1618 30.7427 40.2184 27.3596 37.5842 27.3596V29.3596ZM35.0583 27.4798C35.4052 28.5827 36.4137 29.3596 37.5842 29.3596V27.3596C37.3226 27.3596 37.0618 27.1838 36.9661 26.8797L35.0583 27.4798ZM36.9661 26.8797C36.1778 24.3734 32.7027 24.3734 31.9143 26.8797L33.8222 27.4798C34.0234 26.8401 34.857 26.8401 35.0583 27.4798L36.9661 26.8797ZM44.6404 29.2V31.2806H46.6404V29.2H44.6404ZM24.2404 31.2806V29.2H22.2404V31.2806H24.2404ZM38.5726 41.3498C37.7267 41.7187 36.9088 42.0365 36.1796 42.2606C35.4358 42.4892 34.8477 42.6 34.4404 42.6V44.6C35.1439 44.6 35.9557 44.4217 36.7671 44.1723C37.5932 43.9185 38.4858 43.5695 39.3719 43.1832L38.5726 41.3498ZM34.4404 42.6C34.0331 42.6 33.445 42.4892 32.7012 42.2606C31.972 42.0365 31.1541 41.7187 30.3082 41.3498L29.5089 43.1832C30.395 43.5695 31.2876 43.9185 32.1137 44.1723C32.9251 44.4217 33.7369 44.6 34.4404 44.6V42.6ZM30.3082 41.3498C28.0811 40.3789 27.176 39.9705 26.2489 39.0276L24.8227 40.4297C26.0689 41.6972 27.3545 42.2439 29.5089 43.1832L30.3082 41.3498ZM22.8916 37.481C23.2905 38.472 24.0738 39.668 24.8227 40.4297L26.2489 39.0276C25.6848 38.4538 25.0473 37.4805 24.7469 36.7341L22.8916 37.481ZM39.3719 43.1832C41.5263 42.2439 42.8119 41.6972 44.0581 40.4297L42.6319 39.0276C41.7049 39.9705 40.7997 40.3789 38.5726 41.3498L39.3719 43.1832ZM44.1339 36.7341C43.8335 37.4805 43.196 38.4538 42.6319 39.0276L44.0581 40.4297C44.807 39.668 45.5903 38.472 45.9892 37.481L44.1339 36.7341ZM34.4404 19C37.4963 19 38.7871 19.0123 39.8035 19.3426L40.4216 17.4405C39.0279 16.9877 37.3406 17 34.4404 17V19ZM46.1999 23.2188C45.3097 20.4789 43.1615 18.3308 40.4216 17.4405L39.8035 19.3426C41.9346 20.035 43.6054 21.7058 44.2978 23.8369L46.1999 23.2188ZM34.4404 17C31.5402 17 29.8529 16.9877 28.4593 17.4405L29.0773 19.3426C30.0937 19.0123 31.3845 19 34.4404 19V17ZM24.583 23.8369C25.2754 21.7058 26.9462 20.035 29.0773 19.3426L28.4593 17.4405C25.7193 18.3308 23.5712 20.4789 22.6809 23.2188L24.583 23.8369ZM23.4807 35.3442L19.5511 32.556L18.3938 34.1871L22.3233 36.9753L23.4807 35.3442ZM19.5799 32.5772C16.5415 30.2537 18.1846 25.4 22.0096 25.4V23.4C16.272 23.4 13.8073 30.6806 18.365 34.1659L19.5799 32.5772ZM46.5667 36.9689L50.4872 34.1871L49.3299 32.556L45.4093 35.3378L46.5667 36.9689ZM50.516 34.1659C55.0737 30.6806 52.609 23.4 46.8714 23.4V25.4C50.6964 25.4 52.3396 30.2537 49.3011 32.5772L50.516 34.1659ZM33.4404 43.6V50H35.4404V43.6H33.4404ZM40.8404 49H28.0404V51H40.8404V49ZM24.2404 29.2C24.2404 26.8531 24.2439 25.5429 24.4085 24.5661L22.4362 24.2339C22.2369 25.4171 22.2404 26.9336 22.2404 29.2H24.2404ZM24.4085 24.5661C24.4544 24.2934 24.5119 24.0557 24.583 23.8369L22.6809 23.2188C22.5755 23.5434 22.4962 23.8779 22.4362 24.2339L24.4085 24.5661ZM22.2404 31.2806C22.2404 33.7772 22.2307 35.3893 22.6679 36.8436L24.5832 36.2677C24.2501 35.16 24.2404 33.8931 24.2404 31.2806H22.2404ZM22.6679 36.8436C22.7326 37.059 22.8068 37.2705 22.8916 37.481L24.7469 36.7341C24.6846 36.5795 24.6305 36.425 24.5832 36.2677L22.6679 36.8436ZM44.6404 31.2806C44.6404 33.9043 44.6305 35.171 44.2935 36.2814L46.2073 36.8622C46.6503 35.4025 46.6404 33.7876 46.6404 31.2806H44.6404ZM44.2935 36.2814C44.2472 36.434 44.1944 36.584 44.1339 36.7341L45.9892 37.481C46.0715 37.2766 46.1439 37.0712 46.2073 36.8622L44.2935 36.2814ZM46.6404 29.2C46.6404 26.9336 46.6439 25.4171 46.4446 24.2339L44.4724 24.5661C44.6369 25.5429 44.6404 26.8531 44.6404 29.2H46.6404ZM46.4446 24.2339C46.3846 23.8779 46.3054 23.5434 46.1999 23.2188L44.2978 23.8369C44.3689 24.0557 44.4264 24.2934 44.4724 24.5661L46.4446 24.2339ZM45.4093 35.3378C45.2332 35.4628 45.0448 35.5696 44.8472 35.6567L45.6536 37.4869C45.9746 37.3455 46.2805 37.1719 46.5667 36.9689L45.4093 35.3378ZM22.3233 36.9753C22.6117 37.1799 22.9229 37.3502 23.2506 37.4827L24.0004 35.6286C23.8167 35.5543 23.6423 35.4589 23.4807 35.3442L22.3233 36.9753ZM22.0096 25.4H23.4224V23.4H22.0096V25.4ZM46.8714 23.4H45.4585V25.4H46.8714V23.4Z" fill="#52489C"/>
</svg>
