<svg width="68" height="68" viewBox="0 0 68 68" fill="none" xmlns="http://www.w3.org/2000/svg">
<rect width="68" height="68" rx="34" fill="#DCDAEB"/>
<path d="M43.7314 43.7559L42.8999 43.2004L43.7314 43.7559ZM24.2441 24.2686L23.6885 23.4371L24.2441 24.2686ZM28.9531 22.2463L28.7327 21.2709L28.9531 22.2463ZM45.7537 39.0469L44.7783 38.8265L45.7537 39.0469ZM42.1094 18.2871L41.7267 19.2109L42.1094 18.2871ZM49.7129 25.8906L50.6368 25.508L49.7129 25.8906ZM45.2652 31.2672V32.2672V31.2672ZM43.7576 31.2672V30.2672V31.2672ZM36.7328 24.2424H35.7328H36.7328ZM36.7328 22.7348H37.7328H36.7328ZM44.7783 38.8265C44.4274 40.3794 43.7935 41.8631 42.8999 43.2004L44.5629 44.3115C45.5934 42.7693 46.3245 41.0582 46.7291 39.2673L44.7783 38.8265ZM42.8999 43.2004C41.466 45.3464 39.428 47.019 37.0435 48.0067L37.8088 49.8544C40.5588 48.7153 42.9092 46.7864 44.5629 44.3115L42.8999 43.2004ZM37.0435 48.0067C34.659 48.9943 32.0351 49.2528 29.5038 48.7492L29.1136 50.7108C32.0329 51.2915 35.0589 50.9935 37.8088 49.8544L37.0435 48.0067ZM29.5038 48.7492C26.9724 48.2457 24.6472 47.0029 22.8221 45.1779L21.4079 46.5921C23.5127 48.6968 26.1942 50.1301 29.1136 50.7108L29.5038 48.7492ZM22.8221 45.1779C20.9971 43.3528 19.7543 41.0276 19.2508 38.4962L17.2892 38.8864C17.8699 41.8058 19.3032 44.4873 21.4079 46.5921L22.8221 45.1779ZM19.2508 38.4962C18.7472 35.9649 19.0057 33.341 19.9933 30.9565L18.1456 30.1912C17.0065 32.9411 16.7085 35.9671 17.2892 38.8864L19.2508 38.4962ZM19.9933 30.9565C20.981 28.572 22.6536 26.534 24.7996 25.1001L23.6885 23.4371C21.2136 25.0908 19.2847 27.4412 18.1456 30.1912L19.9933 30.9565ZM24.7996 25.1001C26.1369 24.2065 27.6206 23.5726 29.1735 23.2217L28.7327 21.2709C26.9418 21.6755 25.2307 22.4066 23.6885 23.4371L24.7996 25.1001ZM31.0496 25.0229V28.1451H33.0496V25.0229H31.0496ZM39.8549 36.9504H42.9771V34.9504H39.8549V36.9504ZM31.0496 28.1451C31.0496 33.0081 34.9919 36.9504 39.8549 36.9504V34.9504C36.0965 34.9504 33.0496 31.9035 33.0496 28.1451H31.0496ZM29.1735 23.2217C30.0756 23.0178 31.0496 23.7717 31.0496 25.0229H33.0496C33.0496 22.8256 31.1943 20.7146 28.7327 21.2709L29.1735 23.2217ZM46.7291 39.2673C47.2854 36.8057 45.1744 34.9504 42.9771 34.9504V36.9504C44.2283 36.9504 44.9822 37.9244 44.7783 38.8265L46.7291 39.2673ZM41.7267 19.2109C43.3099 19.8667 44.7485 20.828 45.9603 22.0397L47.3745 20.6255C45.977 19.228 44.3179 18.1195 42.492 17.3632L41.7267 19.2109ZM45.9603 22.0397C47.172 23.2515 48.1333 24.6901 48.7891 26.2733L50.6368 25.508C49.8805 23.6821 48.772 22.023 47.3745 20.6255L45.9603 22.0397ZM45.2652 30.2672H43.7576V32.2672H45.2652V30.2672ZM37.7328 24.2424V22.7348H35.7328V24.2424H37.7328ZM48.7891 26.2733C49.2097 27.2889 48.9726 28.2335 48.3196 28.9724C47.6441 29.7369 46.5198 30.2672 45.2652 30.2672V32.2672C47.0576 32.2672 48.7403 31.5168 49.8183 30.2968C50.919 29.0512 51.3822 27.3075 50.6368 25.508L48.7891 26.2733ZM43.7576 30.2672C40.4302 30.2672 37.7328 27.5698 37.7328 24.2424H35.7328C35.7328 28.6744 39.3256 32.2672 43.7576 32.2672V30.2672ZM42.492 17.3632C40.6925 16.6178 38.9488 17.081 37.7032 18.1817C36.4832 19.2597 35.7328 20.9424 35.7328 22.7348H37.7328C37.7328 21.4802 38.2631 20.3559 39.0276 19.6804C39.7665 19.0274 40.7111 18.7903 41.7267 19.2109L42.492 17.3632Z" fill="#52489C"/>
</svg>
