<svg width="68" height="68" viewBox="0 0 68 68" fill="none" xmlns="http://www.w3.org/2000/svg">
<rect width="68" height="68" rx="34" fill="#DCDAEB"/>
<path d="M49.657 37.311L50.6356 37.517L49.657 37.311ZM37.3111 49.657L37.1051 48.6784L37.3111 49.657ZM30.689 49.657L30.8949 48.6784L30.689 49.657ZM19.1818 27.9539L18.256 27.5758L19.1818 27.9539ZM18.343 37.311L17.3644 37.517L18.343 37.311ZM30.689 18.343L30.483 17.3644L30.689 18.343ZM37.3111 18.343L37.517 17.3644L37.3111 18.343ZM18.2808 31L19.2633 31.1864L18.2808 31ZM18.0694 35.5L17.0737 35.5926L18.0694 35.5ZM30 49.4959L29.7507 50.4644L30 49.4959ZM45.5 22.8757L46.2187 22.1803L45.5 22.8757ZM47.8941 28.3361C48.6068 30.0824 49 31.994 49 34H51C51 31.7305 50.5547 29.5625 49.7459 27.5804L47.8941 28.3361ZM49.2174 28.8787L49.2808 28.8458L48.3592 27.0708L48.2958 27.1037L49.2174 28.8787ZM37.1051 48.6784C36.1041 48.889 35.0656 49 34 49V51C35.2048 51 36.3813 50.8745 37.517 50.6356L37.1051 48.6784ZM34 49C32.9344 49 31.8959 48.889 30.8949 48.6784L30.483 50.6356C31.6187 50.8745 32.7952 51 34 51V49ZM19.7639 27.1377L19.7035 27.1008L18.66 28.807L18.7204 28.8439L19.7639 27.1377ZM30.8949 19.3216C31.8959 19.1109 32.9344 19 34 19V17C32.7952 17 31.6187 17.1255 30.483 17.3644L30.8949 19.3216ZM34 19C35.0656 19 36.1041 19.111 37.1051 19.3216L37.517 17.3644C36.3813 17.1255 35.2048 17 34 17V19ZM19 34C19 33.0375 19.0905 32.097 19.2633 31.1864L17.2983 30.8136C17.1024 31.8465 17 32.9118 17 34H19ZM19.2633 31.1864C19.4509 30.197 19.7358 29.2422 20.1075 28.332L18.256 27.5758C17.8343 28.6083 17.5112 29.6915 17.2983 30.8136L19.2633 31.1864ZM20.1075 28.332C20.779 26.6879 21.7344 25.1889 22.9133 23.8961L21.4355 22.5485C20.1006 24.0123 19.0177 25.7109 18.256 27.5758L20.1075 28.332ZM21.2009 23.4508L23.0265 31.2285L24.9735 30.7715L23.1479 22.9938L21.2009 23.4508ZM19.3216 37.1051C19.2048 36.5501 19.1187 35.9836 19.0651 35.4074L17.0737 35.5926C17.1344 36.2452 17.232 36.8874 17.3644 37.517L19.3216 37.1051ZM19.0651 35.4074C19.022 34.9443 19 34.4749 19 34H17C17 34.5368 17.0249 35.068 17.0737 35.5926L19.0651 35.4074ZM23.3955 30.2034L17.4649 34.7034L18.6739 36.2966L24.6045 31.7966L23.3955 30.2034ZM23.7127 31.9578L28.7127 33.4578L29.2873 31.5422L24.2873 30.0422L23.7127 31.9578ZM28.0513 32.8162L30.0513 38.8162L31.9487 38.1838L29.9487 32.1838L28.0513 32.8162ZM30.2407 37.8492L27.2407 41.3492L28.7593 42.6508L31.7593 39.1508L30.2407 37.8492ZM30.8949 48.6784C30.6779 48.6328 30.4626 48.5824 30.2493 48.5275L29.7507 50.4644C29.9928 50.5267 30.237 50.5838 30.483 50.6356L30.8949 48.6784ZM27.0338 42.2578L29.0338 49.7537L30.9662 49.2381L28.9662 41.7422L27.0338 42.2578ZM30.2493 48.5275C26.2226 47.4911 22.8474 44.8224 20.8744 41.2668L19.1256 42.2372C21.3599 46.2637 25.1822 49.2885 29.7507 50.4644L30.2493 48.5275ZM20.8744 41.2668C20.1621 39.9831 19.6328 38.5842 19.3216 37.1051L17.3644 37.517C17.7175 39.195 18.318 40.7818 19.1256 42.2372L20.8744 41.2668ZM28.031 41.0005L20.031 40.7525L19.969 42.7515L27.969 42.9995L28.031 41.0005ZM29.6247 33.2809L34.6247 29.2809L33.3753 27.7191L28.3753 31.7191L29.6247 33.2809ZM35 28.5V24H33V28.5H35ZM37.1051 19.3216C37.9752 19.5047 38.8175 19.7632 39.6248 20.09L40.3752 18.2361C39.4594 17.8654 38.5039 17.5721 37.517 17.3644L37.1051 19.3216ZM34.6276 24.7785L40.6276 19.9416L39.3724 18.3845L33.3724 23.2215L34.6276 24.7785ZM22.9133 23.8961C24.3022 22.3731 26 21.1377 27.9067 20.289L27.0933 18.4619C24.9311 19.4243 23.0079 20.8242 21.4355 22.5485L22.9133 23.8961ZM27.9067 20.289C28.8549 19.8669 29.855 19.5404 30.8949 19.3216L30.483 17.3644C29.3035 17.6126 28.1689 17.9831 27.0933 18.4619L27.9067 20.289ZM34.5797 23.1852L28.0797 18.5606L26.9203 20.1903L33.4203 24.8148L34.5797 23.1852ZM33.3753 29.2809L38.3753 33.2809L39.6247 31.7191L34.6247 27.7191L33.3753 29.2809ZM38.0513 32.1838L36.0513 38.1838L37.9487 38.8162L39.9487 32.8162L38.0513 32.1838ZM37 37.5H31V39.5H37V37.5ZM36.2407 39.1508L39.2407 42.6508L40.7593 41.3492L37.7593 37.8492L36.2407 39.1508ZM37.4775 48.5951C37.354 48.6244 37.2299 48.6522 37.1051 48.6784L37.517 50.6356C37.6584 50.6058 37.7992 50.5743 37.9394 50.541L37.4775 48.5951ZM39.0429 41.7102L36.7514 49.2782L38.6655 49.8578L40.9571 42.2898L39.0429 41.7102ZM48.6784 37.1051C48.3483 38.674 47.7729 40.1526 46.9939 41.4993L48.7251 42.5007C49.6082 40.974 50.261 39.2968 50.6356 37.517L48.6784 37.1051ZM46.9939 41.4993C44.9584 45.018 41.5356 47.632 37.4775 48.5951L37.9394 50.541C42.5439 49.4483 46.4203 46.485 48.7251 42.5007L46.9939 41.4993ZM40 43H47.8595V41H40V43ZM39.3162 33.4487L43.8162 31.9487L43.1838 30.0513L38.6838 31.5513L39.3162 33.4487ZM39.6248 20.09C41.5822 20.8823 43.3353 22.0765 44.7813 23.571L46.2187 22.1803C44.5816 20.4883 42.5955 19.1348 40.3752 18.2361L39.6248 20.09ZM44.7813 23.571C46.1021 24.9361 47.1655 26.5506 47.8941 28.3361L49.7459 27.5804C48.9194 25.5552 47.7141 23.7259 46.2187 22.1803L44.7813 23.571ZM44.471 31.239L46.471 23.1147L44.529 22.6366L42.529 30.761L44.471 31.239ZM49 34C49 34.157 48.9976 34.3135 48.9928 34.4693L50.9919 34.5307C50.9973 34.3544 51 34.1775 51 34H49ZM48.9928 34.4693C48.9651 35.3708 48.858 36.2516 48.6784 37.1051L50.6356 37.517C50.8393 36.5487 50.9606 35.5507 50.9919 34.5307L48.9928 34.4693ZM43.0255 31.8802L49.5178 35.3802L50.4669 33.6198L43.9745 30.1198L43.0255 31.8802Z" fill="#52489C"/>
</svg>
